<?xml version="1.0" encoding="utf-8"?>
<!-- Generator: Adobe Illustrator 12.0.0, SVG Export Plug-In . SVG Version: 6.00 Build 51448)  -->
<!DOCTYPE svg PUBLIC "-//W3C//DTD SVG 1.1 Basic//EN" "http://www.w3.org/Graphics/SVG/1.1/DTD/svg11-basic.dtd" [
	<!ENTITY ns_svg "http://www.w3.org/2000/svg">
	<!ENTITY ns_xlink "http://www.w3.org/1999/xlink">
]>
<svg  version="1.1" baseProfile="basic" id="Layer_1" xmlns="&ns_svg;" xmlns:xlink="&ns_xlink;" width="465.077" height="38.245"
	 viewBox="0 0 465.077 38.245" overflow="visible" enable-background="new 0 0 465.077 38.245" xml:space="preserve">
<g>
	<linearGradient id="XMLID_31_" gradientUnits="userSpaceOnUse" x1="17.8843" y1="3.4502" x2="17.8843" y2="37.2451">
		<stop  offset="0" style="stop-color:#339933"/>
		<stop  offset="0.2894" style="stop-color:#669933"/>
		<stop  offset="0.4128" style="stop-color:#3F996D"/>
		<stop  offset="0.5363" style="stop-color:#1D99A0"/>
		<stop  offset="0.6294" style="stop-color:#0899C0"/>
		<stop  offset="0.6809" style="stop-color:#0099CC"/>
		<stop  offset="1" style="stop-color:#006699"/>
	</linearGradient>
	<path fill="url(#XMLID_31_)" stroke="#FFFFFF" stroke-width="2" d="M34.769,27.299c0,1.211-0.152,2.299-0.459,3.264
		c-0.306,0.967-0.71,1.818-1.212,2.556c-0.505,0.741-1.095,1.368-1.768,1.887c-0.678,0.517-1.379,0.942-2.1,1.272
		c-0.72,0.33-1.455,0.576-2.204,0.73c-0.745,0.158-1.448,0.236-2.109,0.236H1.282v-6.127h23.636c1.179,0,2.094-0.344,2.746-1.039
		c0.652-0.688,0.978-1.615,0.978-2.779c0-0.566-0.088-1.084-0.259-1.555c-0.176-0.472-0.421-0.883-0.742-1.227
		c-0.324-0.345-0.714-0.613-1.18-0.801c-0.461-0.188-0.978-0.281-1.543-0.281H10.826c-0.989,0-2.059-0.178-3.206-0.531
		c-1.146-0.355-2.21-0.922-3.194-1.709c-0.979-0.785-1.797-1.813-2.45-3.085C1.324,16.835,1,15.282,1,13.444
		c0-1.839,0.324-3.391,0.977-4.653c0.653-1.267,1.47-2.295,2.45-3.09C5.41,4.908,6.475,4.336,7.621,3.983
		C8.767,3.627,9.837,3.45,10.826,3.45h20.854v6.129H10.826c-1.162,0-2.066,0.353-2.722,1.057c-0.653,0.708-0.977,1.646-0.977,2.808
		c0,1.177,0.324,2.108,0.977,2.791c0.656,0.685,1.56,1.024,2.722,1.024h14.092h0.047c0.662,0.019,1.358,0.107,2.097,0.273
		c0.737,0.163,1.474,0.42,2.204,0.765c0.732,0.346,1.426,0.781,2.086,1.307c0.661,0.526,1.243,1.16,1.755,1.898
		c0.514,0.738,0.914,1.588,1.216,2.545C34.618,25.005,34.769,26.09,34.769,27.299z"/>
	<linearGradient id="XMLID_32_" gradientUnits="userSpaceOnUse" x1="51.5112" y1="11.7725" x2="51.5112" y2="37.2451">
		<stop  offset="0" style="stop-color:#339933"/>
		<stop  offset="0.2894" style="stop-color:#669933"/>
		<stop  offset="0.4128" style="stop-color:#3F996D"/>
		<stop  offset="0.5363" style="stop-color:#1D99A0"/>
		<stop  offset="0.6294" style="stop-color:#0899C0"/>
		<stop  offset="0.6809" style="stop-color:#0099CC"/>
		<stop  offset="1" style="stop-color:#006699"/>
	</linearGradient>
	<path fill="url(#XMLID_32_)" stroke="#FFFFFF" stroke-width="2" d="M65.474,28.807c0,0.849-0.152,1.763-0.448,2.747
		c-0.298,0.98-0.781,1.892-1.45,2.733c-0.663,0.842-1.538,1.543-2.615,2.109c-1.078,0.564-2.384,0.848-3.92,0.848H45.986
		c-0.85,0-1.764-0.148-2.744-0.447c-0.985-0.299-1.896-0.783-2.735-1.451c-0.84-0.668-1.541-1.539-2.11-2.615
		c-0.564-1.077-0.849-2.383-0.849-3.924c0-0.848,0.149-1.767,0.449-2.756c0.297-0.99,0.781-1.904,1.447-2.744
		c0.67-0.844,1.542-1.548,2.616-2.111c1.078-0.564,2.383-0.846,3.925-0.846H57.04v5.842H45.986c-0.834,0-1.477,0.256-1.934,0.768
		c-0.456,0.508-0.683,1.141-0.683,1.895c0,0.802,0.263,1.428,0.791,1.875c0.525,0.445,1.147,0.672,1.873,0.672H57.04
		c0.83,0,1.475-0.252,1.931-0.756c0.455-0.502,0.683-1.129,0.683-1.886v-8.552c0-0.803-0.247-1.436-0.742-1.91
		c-0.495-0.47-1.119-0.707-1.872-0.707H43.583v-5.818H57.04c0.846,0,1.759,0.149,2.744,0.444c0.983,0.301,1.89,0.783,2.733,1.451
		c0.842,0.668,1.544,1.539,2.108,2.614c0.566,1.079,0.849,2.384,0.849,3.926V28.807z"/>
	<linearGradient id="XMLID_33_" gradientUnits="userSpaceOnUse" x1="84.6787" y1="1" x2="84.6787" y2="37.2451">
		<stop  offset="0" style="stop-color:#339933"/>
		<stop  offset="0.2894" style="stop-color:#669933"/>
		<stop  offset="0.4128" style="stop-color:#3F996D"/>
		<stop  offset="0.5363" style="stop-color:#1D99A0"/>
		<stop  offset="0.6294" style="stop-color:#0899C0"/>
		<stop  offset="0.6809" style="stop-color:#0099CC"/>
		<stop  offset="1" style="stop-color:#006699"/>
	</linearGradient>
	<path fill="url(#XMLID_33_)" stroke="#FFFFFF" stroke-width="2" d="M98.794,28.642c0,0.582-0.064,1.195-0.199,1.839
		c-0.133,0.646-0.343,1.285-0.624,1.92c-0.286,0.636-0.65,1.248-1.099,1.826c-0.447,0.582-0.987,1.098-1.622,1.543
		c-0.639,0.449-1.376,0.807-2.208,1.074c-0.834,0.27-1.775,0.4-2.827,0.4H79.163c-0.579,0-1.194-0.068-1.837-0.201
		c-0.645-0.133-1.283-0.341-1.918-0.623c-0.638-0.283-1.249-0.65-1.826-1.096c-0.585-0.447-1.1-0.991-1.546-1.629
		c-0.447-0.635-0.805-1.374-1.07-2.212c-0.269-0.845-0.403-1.79-0.403-2.842V1h6.127v27.642c0,0.755,0.236,1.356,0.706,1.802
		c0.473,0.449,1.063,0.674,1.768,0.674h11.053c0.771,0,1.374-0.228,1.802-0.684c0.432-0.457,0.65-1.051,0.65-1.792V20.35
		c0-0.771-0.229-1.373-0.683-1.805c-0.459-0.433-1.047-0.647-1.77-0.647H79.163v-6.125h11.053c0.583,0,1.193,0.064,1.84,0.198
		c0.645,0.133,1.281,0.342,1.921,0.625c0.634,0.28,1.244,0.648,1.827,1.097c0.575,0.446,1.087,0.989,1.53,1.625
		c0.437,0.636,0.791,1.372,1.06,2.205c0.268,0.834,0.399,1.777,0.399,2.83V28.642z"/>
	<linearGradient id="XMLID_34_" gradientUnits="userSpaceOnUse" x1="116.3613" y1="11.7725" x2="116.3613" y2="37.2451">
		<stop  offset="0" style="stop-color:#339933"/>
		<stop  offset="0.2894" style="stop-color:#669933"/>
		<stop  offset="0.4128" style="stop-color:#3F996D"/>
		<stop  offset="0.5363" style="stop-color:#1D99A0"/>
		<stop  offset="0.6294" style="stop-color:#0899C0"/>
		<stop  offset="0.6809" style="stop-color:#0099CC"/>
		<stop  offset="1" style="stop-color:#006699"/>
	</linearGradient>
	<path fill="url(#XMLID_34_)" stroke="#FFFFFF" stroke-width="2" d="M130.326,28.807c0,0.849-0.151,1.763-0.448,2.747
		c-0.299,0.98-0.782,1.892-1.451,2.733c-0.664,0.842-1.536,1.543-2.612,2.109c-1.079,0.564-2.388,0.848-3.926,0.848h-11.05
		c-0.851,0-1.766-0.148-2.748-0.447c-0.982-0.299-1.889-0.783-2.731-1.451c-0.841-0.668-1.546-1.539-2.109-2.615
		c-0.567-1.077-0.854-2.383-0.854-3.924c0-0.848,0.151-1.767,0.454-2.756c0.294-0.99,0.779-1.904,1.446-2.744
		c0.669-0.844,1.538-1.548,2.617-2.111c1.075-0.564,2.38-0.846,3.924-0.846h11.05v5.842h-11.05c-0.837,0-1.479,0.256-1.933,0.768
		c-0.458,0.508-0.686,1.141-0.686,1.895c0,0.802,0.268,1.428,0.791,1.875c0.527,0.445,1.146,0.672,1.875,0.672h11.002
		c0.833,0,1.476-0.252,1.934-0.756c0.453-0.502,0.68-1.129,0.68-1.886v-8.552c0-0.803-0.246-1.436-0.739-1.91
		c-0.497-0.47-1.123-0.707-1.875-0.707h-13.456v-5.818h13.456c0.85,0,1.762,0.149,2.744,0.444c0.984,0.301,1.894,0.783,2.736,1.451
		c0.841,0.668,1.543,1.539,2.11,2.614c0.567,1.079,0.848,2.384,0.848,3.926V28.807z"/>
	<linearGradient id="XMLID_35_" gradientUnits="userSpaceOnUse" x1="155.0444" y1="3.4502" x2="155.0444" y2="37.2451">
		<stop  offset="0" style="stop-color:#339933"/>
		<stop  offset="0.2894" style="stop-color:#669933"/>
		<stop  offset="0.4128" style="stop-color:#3F996D"/>
		<stop  offset="0.5363" style="stop-color:#1D99A0"/>
		<stop  offset="0.6294" style="stop-color:#0899C0"/>
		<stop  offset="0.6809" style="stop-color:#0099CC"/>
		<stop  offset="1" style="stop-color:#006699"/>
	</linearGradient>
	<path fill="url(#XMLID_35_)" stroke="#FFFFFF" stroke-width="2" d="M158.107,37.245h-6.126V3.45h6.126V37.245z"/>
	<linearGradient id="XMLID_36_" gradientUnits="userSpaceOnUse" x1="179.2349" y1="3.4502" x2="179.2349" y2="37.2451">
		<stop  offset="0" style="stop-color:#339933"/>
		<stop  offset="0.2894" style="stop-color:#669933"/>
		<stop  offset="0.4128" style="stop-color:#3F996D"/>
		<stop  offset="0.5363" style="stop-color:#1D99A0"/>
		<stop  offset="0.6294" style="stop-color:#0899C0"/>
		<stop  offset="0.6809" style="stop-color:#0099CC"/>
		<stop  offset="1" style="stop-color:#006699"/>
	</linearGradient>
	<path fill="url(#XMLID_36_)" stroke="#FFFFFF" stroke-width="2" d="M195.813,9.579H182.31v27.666h-6.125V9.579h-13.527V3.45h33.156
		V9.579z"/>
	<linearGradient id="XMLID_37_" gradientUnits="userSpaceOnUse" x1="231.0767" y1="3.4502" x2="231.0767" y2="37.2451">
		<stop  offset="0" style="stop-color:#339933"/>
		<stop  offset="0.2894" style="stop-color:#669933"/>
		<stop  offset="0.4128" style="stop-color:#3F996D"/>
		<stop  offset="0.5363" style="stop-color:#1D99A0"/>
		<stop  offset="0.6294" style="stop-color:#0899C0"/>
		<stop  offset="0.6809" style="stop-color:#0099CC"/>
		<stop  offset="1" style="stop-color:#006699"/>
	</linearGradient>
	<path fill="url(#XMLID_37_)" stroke="#FFFFFF" stroke-width="2" d="M247.962,27.299c0,1.211-0.154,2.299-0.459,3.264
		c-0.305,0.967-0.711,1.818-1.213,2.556c-0.506,0.741-1.098,1.368-1.77,1.887c-0.674,0.517-1.375,0.942-2.094,1.272
		c-0.729,0.33-1.457,0.576-2.207,0.73c-0.748,0.158-1.447,0.236-2.105,0.236h-23.636v-6.127h23.636c1.176,0,2.09-0.344,2.742-1.039
		c0.652-0.688,0.98-1.615,0.98-2.779c0-0.566-0.09-1.084-0.26-1.555c-0.176-0.472-0.418-0.883-0.744-1.227
		c-0.322-0.345-0.713-0.613-1.178-0.801c-0.465-0.188-0.98-0.281-1.541-0.281h-14.098c-0.986,0-2.055-0.178-3.202-0.531
		c-1.146-0.355-2.21-0.922-3.192-1.709c-0.981-0.785-1.797-1.813-2.45-3.085c-0.653-1.276-0.979-2.829-0.979-4.667
		c0-1.839,0.326-3.391,0.979-4.653c0.653-1.267,1.469-2.295,2.45-3.09c0.982-0.793,2.046-1.365,3.192-1.718
		c1.147-0.356,2.216-0.533,3.202-0.533h20.861v6.129h-20.861c-1.16,0-2.066,0.353-2.719,1.057c-0.652,0.708-0.977,1.646-0.977,2.808
		c0,1.177,0.324,2.108,0.977,2.791c0.652,0.685,1.559,1.024,2.719,1.024h14.098h0.043c0.664,0.019,1.357,0.107,2.1,0.273
		c0.736,0.163,1.475,0.42,2.201,0.765c0.732,0.346,1.426,0.781,2.088,1.307c0.658,0.526,1.242,1.16,1.756,1.898
		c0.508,0.738,0.912,1.588,1.213,2.545C247.81,25.005,247.962,26.09,247.962,27.299z"/>
	<linearGradient id="XMLID_38_" gradientUnits="userSpaceOnUse" x1="265.9648" y1="11.7725" x2="265.9648" y2="37.2451">
		<stop  offset="0" style="stop-color:#339933"/>
		<stop  offset="0.2894" style="stop-color:#669933"/>
		<stop  offset="0.4128" style="stop-color:#3F996D"/>
		<stop  offset="0.5363" style="stop-color:#1D99A0"/>
		<stop  offset="0.6294" style="stop-color:#0899C0"/>
		<stop  offset="0.6809" style="stop-color:#0099CC"/>
		<stop  offset="1" style="stop-color:#006699"/>
	</linearGradient>
	<path fill="url(#XMLID_38_)" stroke="#FFFFFF" stroke-width="2" d="M280.081,28.642c0,1.052-0.135,1.997-0.398,2.842
		c-0.271,0.838-0.623,1.577-1.064,2.212c-0.439,0.638-0.953,1.182-1.527,1.629c-0.588,0.445-1.193,0.813-1.828,1.096
		c-0.635,0.282-1.281,0.49-1.932,0.623c-0.654,0.133-1.27,0.201-1.85,0.201h-11.053c-0.852,0-1.779-0.148-2.783-0.447
		c-1.002-0.299-1.934-0.791-2.789-1.473c-0.859-0.686-1.574-1.573-2.145-2.664c-0.574-1.092-0.863-2.43-0.863-4.019V20.35
		c0-1.572,0.289-2.905,0.863-3.997c0.57-1.09,1.285-1.979,2.145-2.662c0.855-0.686,1.787-1.174,2.789-1.475
		c1.004-0.295,1.932-0.444,2.783-0.444h11.053c1.568,0,2.906,0.28,4.004,0.846c1.098,0.565,1.986,1.277,2.664,2.133
		c0.674,0.854,1.168,1.787,1.473,2.792c0.307,1.007,0.459,1.939,0.459,2.807V28.642z M273.956,20.394
		c0-0.847-0.217-1.473-0.637-1.884c-0.426-0.41-1.037-0.612-1.838-0.612h-11.008c-0.814,0-1.436,0.206-1.861,0.624
		c-0.424,0.417-0.631,1.026-0.631,1.829v8.292c0,0.804,0.207,1.416,0.631,1.839c0.426,0.424,1.047,0.637,1.861,0.637h11.008
		c0.834,0,1.449-0.213,1.859-0.637c0.41-0.423,0.615-1.035,0.615-1.839V20.394z"/>
	<linearGradient id="XMLID_39_" gradientUnits="userSpaceOnUse" x1="290.8164" y1="1" x2="290.8164" y2="37.2451">
		<stop  offset="0" style="stop-color:#339933"/>
		<stop  offset="0.2894" style="stop-color:#669933"/>
		<stop  offset="0.4128" style="stop-color:#3F996D"/>
		<stop  offset="0.5363" style="stop-color:#1D99A0"/>
		<stop  offset="0.6294" style="stop-color:#0899C0"/>
		<stop  offset="0.6809" style="stop-color:#0099CC"/>
		<stop  offset="1" style="stop-color:#006699"/>
	</linearGradient>
	<path fill="url(#XMLID_39_)" stroke="#FFFFFF" stroke-width="2" d="M296.483,37.245h-2.736c-0.881,0-1.82-0.148-2.813-0.447
		c-0.998-0.299-1.932-0.791-2.795-1.473c-0.865-0.686-1.58-1.573-2.143-2.664c-0.564-1.092-0.848-2.43-0.848-4.019V1h6.125v27.642
		c0,0.755,0.234,1.356,0.707,1.802c0.471,0.449,1.061,0.674,1.766,0.674h2.736V37.245z"/>
	<linearGradient id="XMLID_40_" gradientUnits="userSpaceOnUse" x1="313.7773" y1="11.7725" x2="313.7773" y2="37.2451">
		<stop  offset="0" style="stop-color:#339933"/>
		<stop  offset="0.2894" style="stop-color:#669933"/>
		<stop  offset="0.4128" style="stop-color:#3F996D"/>
		<stop  offset="0.5363" style="stop-color:#1D99A0"/>
		<stop  offset="0.6294" style="stop-color:#0899C0"/>
		<stop  offset="0.6809" style="stop-color:#0099CC"/>
		<stop  offset="1" style="stop-color:#006699"/>
	</linearGradient>
	<path fill="url(#XMLID_40_)" stroke="#FFFFFF" stroke-width="2" d="M327.894,34.157c0,0.441-0.078,0.849-0.232,1.226
		c-0.162,0.378-0.379,0.701-0.65,0.978c-0.277,0.276-0.598,0.494-0.963,0.648c-0.373,0.158-0.77,0.236-1.193,0.236h-13.854
		c-0.756,0-1.561-0.084-2.416-0.259c-0.857-0.175-1.703-0.455-2.533-0.837c-0.836-0.385-1.641-0.873-2.418-1.464
		c-0.777-0.587-1.459-1.302-2.035-2.142c-0.586-0.843-1.051-1.811-1.402-2.91c-0.357-1.1-0.535-2.34-0.535-3.725V11.772h6.133
		v14.136c0,0.802,0.133,1.52,0.408,2.156c0.275,0.638,0.648,1.184,1.121,1.639c0.471,0.457,1.021,0.807,1.662,1.047
		c0.635,0.244,1.322,0.367,2.061,0.367h10.721V11.772h6.127V34.157z"/>
	<linearGradient id="XMLID_41_" gradientUnits="userSpaceOnUse" x1="344.3789" y1="3.4502" x2="344.3789" y2="37.2451">
		<stop  offset="0" style="stop-color:#339933"/>
		<stop  offset="0.2894" style="stop-color:#669933"/>
		<stop  offset="0.4128" style="stop-color:#3F996D"/>
		<stop  offset="0.5363" style="stop-color:#1D99A0"/>
		<stop  offset="0.6294" style="stop-color:#0899C0"/>
		<stop  offset="0.6809" style="stop-color:#0099CC"/>
		<stop  offset="1" style="stop-color:#006699"/>
	</linearGradient>
	<path fill="url(#XMLID_41_)" stroke="#FFFFFF" stroke-width="2" d="M356.81,17.898H346.11v19.347h-6.197V17.898h-7.965v-6.125
		h7.965V3.45h6.197v8.322h10.699V17.898z"/>
	<linearGradient id="XMLID_42_" gradientUnits="userSpaceOnUse" x1="363.9961" y1="1" x2="363.9961" y2="37.2451">
		<stop  offset="0" style="stop-color:#339933"/>
		<stop  offset="0.2894" style="stop-color:#669933"/>
		<stop  offset="0.4128" style="stop-color:#3F996D"/>
		<stop  offset="0.5363" style="stop-color:#1D99A0"/>
		<stop  offset="0.6294" style="stop-color:#0899C0"/>
		<stop  offset="0.6809" style="stop-color:#0099CC"/>
		<stop  offset="1" style="stop-color:#006699"/>
	</linearGradient>
	<path fill="url(#XMLID_42_)" stroke="#FFFFFF" stroke-width="2" d="M367.06,6.541h-6.127V1h6.127V6.541z M367.06,37.245h-6.127
		V11.772h6.127V37.245z"/>
	<linearGradient id="XMLID_43_" gradientUnits="userSpaceOnUse" x1="386.5234" y1="11.7725" x2="386.5234" y2="37.2451">
		<stop  offset="0" style="stop-color:#339933"/>
		<stop  offset="0.2894" style="stop-color:#669933"/>
		<stop  offset="0.4128" style="stop-color:#3F996D"/>
		<stop  offset="0.5363" style="stop-color:#1D99A0"/>
		<stop  offset="0.6294" style="stop-color:#0899C0"/>
		<stop  offset="0.6809" style="stop-color:#0099CC"/>
		<stop  offset="1" style="stop-color:#006699"/>
	</linearGradient>
	<path fill="url(#XMLID_43_)" stroke="#FFFFFF" stroke-width="2" d="M400.64,28.642c0,1.052-0.135,1.997-0.4,2.842
		c-0.27,0.838-0.621,1.577-1.059,2.212c-0.441,0.638-0.953,1.182-1.533,1.629c-0.582,0.445-1.191,0.813-1.822,1.096
		c-0.641,0.282-1.285,0.49-1.938,0.623c-0.65,0.133-1.27,0.201-1.85,0.201h-11.049c-0.854,0-1.781-0.148-2.785-0.447
		s-1.932-0.791-2.791-1.473c-0.857-0.686-1.57-1.573-2.148-2.664c-0.566-1.092-0.857-2.43-0.857-4.019V20.35
		c0-1.572,0.291-2.905,0.857-3.997c0.578-1.09,1.291-1.979,2.148-2.662c0.859-0.686,1.787-1.174,2.791-1.475
		c1.004-0.295,1.932-0.444,2.785-0.444h11.049c1.568,0,2.908,0.28,4.008,0.846c1.1,0.565,1.986,1.277,2.66,2.133
		c0.676,0.854,1.166,1.787,1.475,2.792c0.307,1.007,0.459,1.939,0.459,2.807V28.642z M394.515,20.394
		c0-0.847-0.217-1.473-0.639-1.884c-0.424-0.41-1.035-0.612-1.838-0.612h-11c-0.822,0-1.441,0.206-1.863,0.624
		c-0.426,0.417-0.643,1.026-0.643,1.829v8.292c0,0.804,0.217,1.416,0.643,1.839c0.422,0.424,1.041,0.637,1.863,0.637h11
		c0.832,0,1.453-0.213,1.863-0.637c0.406-0.423,0.613-1.035,0.613-1.839V20.394z"/>
	<linearGradient id="XMLID_44_" gradientUnits="userSpaceOnUse" x1="419.9629" y1="11.7725" x2="419.9629" y2="37.2451">
		<stop  offset="0" style="stop-color:#339933"/>
		<stop  offset="0.2894" style="stop-color:#669933"/>
		<stop  offset="0.4128" style="stop-color:#3F996D"/>
		<stop  offset="0.5363" style="stop-color:#1D99A0"/>
		<stop  offset="0.6294" style="stop-color:#0899C0"/>
		<stop  offset="0.6809" style="stop-color:#0099CC"/>
		<stop  offset="1" style="stop-color:#006699"/>
	</linearGradient>
	<path fill="url(#XMLID_44_)" stroke="#FFFFFF" stroke-width="2" d="M434.079,37.245h-6.125V23.106c0-0.803-0.139-1.521-0.414-2.158
		c-0.279-0.635-0.646-1.18-1.119-1.637c-0.471-0.454-1.025-0.806-1.662-1.05c-0.637-0.242-1.324-0.363-2.061-0.363h-10.721v19.347
		h-6.131V14.809c0-0.423,0.078-0.819,0.238-1.188c0.154-0.371,0.377-0.691,0.658-0.968c0.285-0.274,0.613-0.487,0.99-0.647
		c0.375-0.155,0.779-0.233,1.203-0.233h13.809c0.77,0,1.584,0.084,2.439,0.257c0.852,0.175,1.703,0.453,2.543,0.834
		c0.844,0.387,1.643,0.874,2.4,1.463c0.764,0.589,1.443,1.303,2.031,2.142c0.584,0.844,1.057,1.814,1.398,2.914
		c0.346,1.1,0.521,2.339,0.521,3.724V37.245z"/>
	<linearGradient id="XMLID_45_" gradientUnits="userSpaceOnUse" x1="451.3291" y1="11.7725" x2="451.3291" y2="37.2451">
		<stop  offset="0" style="stop-color:#339933"/>
		<stop  offset="0.2894" style="stop-color:#669933"/>
		<stop  offset="0.4128" style="stop-color:#3F996D"/>
		<stop  offset="0.5363" style="stop-color:#1D99A0"/>
		<stop  offset="0.6294" style="stop-color:#0899C0"/>
		<stop  offset="0.6809" style="stop-color:#0099CC"/>
		<stop  offset="1" style="stop-color:#006699"/>
	</linearGradient>
	<path fill="url(#XMLID_45_)" stroke="#FFFFFF" stroke-width="2" d="M464.077,28.642c0,1.052-0.135,1.997-0.402,2.842
		c-0.264,0.838-0.619,1.577-1.057,2.212c-0.441,0.638-0.955,1.182-1.533,1.629c-0.584,0.445-1.188,0.813-1.83,1.096
		c-0.631,0.282-1.277,0.49-1.926,0.623c-0.654,0.133-1.273,0.201-1.854,0.201h-16.59v-6.127h16.547c0.83,0,1.459-0.213,1.883-0.637
		c0.424-0.423,0.633-1.035,0.633-1.839c-0.076-1.634-0.904-2.45-2.473-2.45h-9.496c-1.354,0-2.498-0.234-3.438-0.707
		c-0.949-0.469-1.709-1.062-2.299-1.768c-0.592-0.707-1.016-1.467-1.277-2.285c-0.254-0.814-0.385-1.58-0.385-2.287
		c0-1.367,0.24-2.516,0.727-3.452c0.488-0.935,1.102-1.693,1.844-2.272c0.734-0.58,1.535-1.003,2.4-1.261
		c0.865-0.261,1.672-0.388,2.428-0.388h15.059v6.125h-15.012c-0.314,0-0.561,0.035-0.744,0.107c-0.18,0.071-0.313,0.164-0.396,0.282
		c-0.09,0.117-0.143,0.24-0.154,0.376c-0.016,0.133-0.023,0.264-0.023,0.386c0.014,0.254,0.063,0.449,0.143,0.589
		c0.076,0.143,0.172,0.248,0.293,0.307c0.117,0.065,0.25,0.101,0.402,0.107c0.145,0.006,0.293,0.012,0.434,0.012h9.496
		c1.568,0,2.904,0.285,4.006,0.849c1.102,0.565,1.984,1.276,2.66,2.132s1.172,1.787,1.475,2.791
		C463.927,26.844,464.077,27.78,464.077,28.642z"/>
</g>
<g>
	<path fill="url(#XMLID_31_)" d="M34.769,27.299c0,1.211-0.152,2.299-0.459,3.264c-0.306,0.967-0.71,1.818-1.212,2.556
		c-0.505,0.741-1.095,1.368-1.768,1.887c-0.678,0.517-1.379,0.942-2.1,1.272c-0.72,0.33-1.455,0.576-2.204,0.73
		c-0.745,0.158-1.448,0.236-2.109,0.236H1.282v-6.127h23.636c1.179,0,2.094-0.344,2.746-1.039c0.652-0.688,0.978-1.615,0.978-2.779
		c0-0.566-0.088-1.084-0.259-1.555c-0.176-0.472-0.421-0.883-0.742-1.227c-0.324-0.345-0.714-0.613-1.18-0.801
		c-0.461-0.188-0.978-0.281-1.543-0.281H10.826c-0.989,0-2.059-0.178-3.206-0.531c-1.146-0.355-2.21-0.922-3.194-1.709
		c-0.979-0.785-1.797-1.813-2.45-3.085C1.324,16.835,1,15.282,1,13.444c0-1.839,0.324-3.391,0.977-4.653
		c0.653-1.267,1.47-2.295,2.45-3.09C5.41,4.908,6.475,4.336,7.621,3.983C8.767,3.627,9.837,3.45,10.826,3.45h20.854v6.129H10.826
		c-1.162,0-2.066,0.353-2.722,1.057c-0.653,0.708-0.977,1.646-0.977,2.808c0,1.177,0.324,2.108,0.977,2.791
		c0.656,0.685,1.56,1.024,2.722,1.024h14.092h0.047c0.662,0.019,1.358,0.107,2.097,0.273c0.737,0.163,1.474,0.42,2.204,0.765
		c0.732,0.346,1.426,0.781,2.086,1.307c0.661,0.526,1.243,1.16,1.755,1.898c0.514,0.738,0.914,1.588,1.216,2.545
		C34.618,25.005,34.769,26.09,34.769,27.299z"/>
	<path fill="url(#XMLID_32_)" d="M65.474,28.807c0,0.849-0.152,1.763-0.448,2.747c-0.298,0.98-0.781,1.892-1.45,2.733
		c-0.663,0.842-1.538,1.543-2.615,2.109c-1.078,0.564-2.384,0.848-3.92,0.848H45.986c-0.85,0-1.764-0.148-2.744-0.447
		c-0.985-0.299-1.896-0.783-2.735-1.451c-0.84-0.668-1.541-1.539-2.11-2.615c-0.564-1.077-0.849-2.383-0.849-3.924
		c0-0.848,0.149-1.767,0.449-2.756c0.297-0.99,0.781-1.904,1.447-2.744c0.67-0.844,1.542-1.548,2.616-2.111
		c1.078-0.564,2.383-0.846,3.925-0.846H57.04v5.842H45.986c-0.834,0-1.477,0.256-1.934,0.768c-0.456,0.508-0.683,1.141-0.683,1.895
		c0,0.802,0.263,1.428,0.791,1.875c0.525,0.445,1.147,0.672,1.873,0.672H57.04c0.83,0,1.475-0.252,1.931-0.756
		c0.455-0.502,0.683-1.129,0.683-1.886v-8.552c0-0.803-0.247-1.436-0.742-1.91c-0.495-0.47-1.119-0.707-1.872-0.707H43.583v-5.818
		H57.04c0.846,0,1.759,0.149,2.744,0.444c0.983,0.301,1.89,0.783,2.733,1.451c0.842,0.668,1.544,1.539,2.108,2.614
		c0.566,1.079,0.849,2.384,0.849,3.926V28.807z"/>
	<path fill="url(#XMLID_33_)" d="M98.794,28.642c0,0.582-0.064,1.195-0.199,1.839c-0.133,0.646-0.343,1.285-0.624,1.92
		c-0.286,0.636-0.65,1.248-1.099,1.826c-0.447,0.582-0.987,1.098-1.622,1.543c-0.639,0.449-1.376,0.807-2.208,1.074
		c-0.834,0.27-1.775,0.4-2.827,0.4H79.163c-0.579,0-1.194-0.068-1.837-0.201c-0.645-0.133-1.283-0.341-1.918-0.623
		c-0.638-0.283-1.249-0.65-1.826-1.096c-0.585-0.447-1.1-0.991-1.546-1.629c-0.447-0.635-0.805-1.374-1.07-2.212
		c-0.269-0.845-0.403-1.79-0.403-2.842V1h6.127v27.642c0,0.755,0.236,1.356,0.706,1.802c0.473,0.449,1.063,0.674,1.768,0.674h11.053
		c0.771,0,1.374-0.228,1.802-0.684c0.432-0.457,0.65-1.051,0.65-1.792V20.35c0-0.771-0.229-1.373-0.683-1.805
		c-0.459-0.433-1.047-0.647-1.77-0.647H79.163v-6.125h11.053c0.583,0,1.193,0.064,1.84,0.198c0.645,0.133,1.281,0.342,1.921,0.625
		c0.634,0.28,1.244,0.648,1.827,1.097c0.575,0.446,1.087,0.989,1.53,1.625c0.437,0.636,0.791,1.372,1.06,2.205
		c0.268,0.834,0.399,1.777,0.399,2.83V28.642z"/>
	<path fill="url(#XMLID_34_)" d="M130.326,28.807c0,0.849-0.151,1.763-0.448,2.747c-0.299,0.98-0.782,1.892-1.451,2.733
		c-0.664,0.842-1.536,1.543-2.612,2.109c-1.079,0.564-2.388,0.848-3.926,0.848h-11.05c-0.851,0-1.766-0.148-2.748-0.447
		c-0.982-0.299-1.889-0.783-2.731-1.451c-0.841-0.668-1.546-1.539-2.109-2.615c-0.567-1.077-0.854-2.383-0.854-3.924
		c0-0.848,0.151-1.767,0.454-2.756c0.294-0.99,0.779-1.904,1.446-2.744c0.669-0.844,1.538-1.548,2.617-2.111
		c1.075-0.564,2.38-0.846,3.924-0.846h11.05v5.842h-11.05c-0.837,0-1.479,0.256-1.933,0.768c-0.458,0.508-0.686,1.141-0.686,1.895
		c0,0.802,0.268,1.428,0.791,1.875c0.527,0.445,1.146,0.672,1.875,0.672h11.002c0.833,0,1.476-0.252,1.934-0.756
		c0.453-0.502,0.68-1.129,0.68-1.886v-8.552c0-0.803-0.246-1.436-0.739-1.91c-0.497-0.47-1.123-0.707-1.875-0.707h-13.456v-5.818
		h13.456c0.85,0,1.762,0.149,2.744,0.444c0.984,0.301,1.894,0.783,2.736,1.451c0.841,0.668,1.543,1.539,2.11,2.614
		c0.567,1.079,0.848,2.384,0.848,3.926V28.807z"/>
	<path fill="url(#XMLID_35_)" d="M158.107,37.245h-6.126V3.45h6.126V37.245z"/>
	<path fill="url(#XMLID_36_)" d="M195.813,9.579H182.31v27.666h-6.125V9.579h-13.527V3.45h33.156V9.579z"/>
	<path fill="url(#XMLID_37_)" d="M247.962,27.299c0,1.211-0.154,2.299-0.459,3.264c-0.305,0.967-0.711,1.818-1.213,2.556
		c-0.506,0.741-1.098,1.368-1.77,1.887c-0.674,0.517-1.375,0.942-2.094,1.272c-0.729,0.33-1.457,0.576-2.207,0.73
		c-0.748,0.158-1.447,0.236-2.105,0.236h-23.636v-6.127h23.636c1.176,0,2.09-0.344,2.742-1.039c0.652-0.688,0.98-1.615,0.98-2.779
		c0-0.566-0.09-1.084-0.26-1.555c-0.176-0.472-0.418-0.883-0.744-1.227c-0.322-0.345-0.713-0.613-1.178-0.801
		c-0.465-0.188-0.98-0.281-1.541-0.281h-14.098c-0.986,0-2.055-0.178-3.202-0.531c-1.146-0.355-2.21-0.922-3.192-1.709
		c-0.981-0.785-1.797-1.813-2.45-3.085c-0.653-1.276-0.979-2.829-0.979-4.667c0-1.839,0.326-3.391,0.979-4.653
		c0.653-1.267,1.469-2.295,2.45-3.09c0.982-0.793,2.046-1.365,3.192-1.718c1.147-0.356,2.216-0.533,3.202-0.533h20.861v6.129
		h-20.861c-1.16,0-2.066,0.353-2.719,1.057c-0.652,0.708-0.977,1.646-0.977,2.808c0,1.177,0.324,2.108,0.977,2.791
		c0.652,0.685,1.559,1.024,2.719,1.024h14.098h0.043c0.664,0.019,1.357,0.107,2.1,0.273c0.736,0.163,1.475,0.42,2.201,0.765
		c0.732,0.346,1.426,0.781,2.088,1.307c0.658,0.526,1.242,1.16,1.756,1.898c0.508,0.738,0.912,1.588,1.213,2.545
		C247.81,25.005,247.962,26.09,247.962,27.299z"/>
	<path fill="url(#XMLID_38_)" d="M280.081,28.642c0,1.052-0.135,1.997-0.398,2.842c-0.271,0.838-0.623,1.577-1.064,2.212
		c-0.439,0.638-0.953,1.182-1.527,1.629c-0.588,0.445-1.193,0.813-1.828,1.096c-0.635,0.282-1.281,0.49-1.932,0.623
		c-0.654,0.133-1.27,0.201-1.85,0.201h-11.053c-0.852,0-1.779-0.148-2.783-0.447c-1.002-0.299-1.934-0.791-2.789-1.473
		c-0.859-0.686-1.574-1.573-2.145-2.664c-0.574-1.092-0.863-2.43-0.863-4.019V20.35c0-1.572,0.289-2.905,0.863-3.997
		c0.57-1.09,1.285-1.979,2.145-2.662c0.855-0.686,1.787-1.174,2.789-1.475c1.004-0.295,1.932-0.444,2.783-0.444h11.053
		c1.568,0,2.906,0.28,4.004,0.846c1.098,0.565,1.986,1.277,2.664,2.133c0.674,0.854,1.168,1.787,1.473,2.792
		c0.307,1.007,0.459,1.939,0.459,2.807V28.642z M273.956,20.394c0-0.847-0.217-1.473-0.637-1.884
		c-0.426-0.41-1.037-0.612-1.838-0.612h-11.008c-0.814,0-1.436,0.206-1.861,0.624c-0.424,0.417-0.631,1.026-0.631,1.829v8.292
		c0,0.804,0.207,1.416,0.631,1.839c0.426,0.424,1.047,0.637,1.861,0.637h11.008c0.834,0,1.449-0.213,1.859-0.637
		c0.41-0.423,0.615-1.035,0.615-1.839V20.394z"/>
	<path fill="url(#XMLID_39_)" d="M296.483,37.245h-2.736c-0.881,0-1.82-0.148-2.813-0.447c-0.998-0.299-1.932-0.791-2.795-1.473
		c-0.865-0.686-1.58-1.573-2.143-2.664c-0.564-1.092-0.848-2.43-0.848-4.019V1h6.125v27.642c0,0.755,0.234,1.356,0.707,1.802
		c0.471,0.449,1.061,0.674,1.766,0.674h2.736V37.245z"/>
	<path fill="url(#XMLID_40_)" d="M327.894,34.157c0,0.441-0.078,0.849-0.232,1.226c-0.162,0.378-0.379,0.701-0.65,0.978
		c-0.277,0.276-0.598,0.494-0.963,0.648c-0.373,0.158-0.77,0.236-1.193,0.236h-13.854c-0.756,0-1.561-0.084-2.416-0.259
		c-0.857-0.175-1.703-0.455-2.533-0.837c-0.836-0.385-1.641-0.873-2.418-1.464c-0.777-0.587-1.459-1.302-2.035-2.142
		c-0.586-0.843-1.051-1.811-1.402-2.91c-0.357-1.1-0.535-2.34-0.535-3.725V11.772h6.133v14.136c0,0.802,0.133,1.52,0.408,2.156
		c0.275,0.638,0.648,1.184,1.121,1.639c0.471,0.457,1.021,0.807,1.662,1.047c0.635,0.244,1.322,0.367,2.061,0.367h10.721V11.772
		h6.127V34.157z"/>
	<path fill="url(#XMLID_41_)" d="M356.81,17.898H346.11v19.347h-6.197V17.898h-7.965v-6.125h7.965V3.45h6.197v8.322h10.699V17.898z"
		/>
	<path fill="url(#XMLID_42_)" d="M367.06,6.541h-6.127V1h6.127V6.541z M367.06,37.245h-6.127V11.772h6.127V37.245z"/>
	<path fill="url(#XMLID_43_)" d="M400.64,28.642c0,1.052-0.135,1.997-0.4,2.842c-0.27,0.838-0.621,1.577-1.059,2.212
		c-0.441,0.638-0.953,1.182-1.533,1.629c-0.582,0.445-1.191,0.813-1.822,1.096c-0.641,0.282-1.285,0.49-1.938,0.623
		c-0.65,0.133-1.27,0.201-1.85,0.201h-11.049c-0.854,0-1.781-0.148-2.785-0.447s-1.932-0.791-2.791-1.473
		c-0.857-0.686-1.57-1.573-2.148-2.664c-0.566-1.092-0.857-2.43-0.857-4.019V20.35c0-1.572,0.291-2.905,0.857-3.997
		c0.578-1.09,1.291-1.979,2.148-2.662c0.859-0.686,1.787-1.174,2.791-1.475c1.004-0.295,1.932-0.444,2.785-0.444h11.049
		c1.568,0,2.908,0.28,4.008,0.846c1.1,0.565,1.986,1.277,2.66,2.133c0.676,0.854,1.166,1.787,1.475,2.792
		c0.307,1.007,0.459,1.939,0.459,2.807V28.642z M394.515,20.394c0-0.847-0.217-1.473-0.639-1.884
		c-0.424-0.41-1.035-0.612-1.838-0.612h-11c-0.822,0-1.441,0.206-1.863,0.624c-0.426,0.417-0.643,1.026-0.643,1.829v8.292
		c0,0.804,0.217,1.416,0.643,1.839c0.422,0.424,1.041,0.637,1.863,0.637h11c0.832,0,1.453-0.213,1.863-0.637
		c0.406-0.423,0.613-1.035,0.613-1.839V20.394z"/>
	<path fill="url(#XMLID_44_)" d="M434.079,37.245h-6.125V23.106c0-0.803-0.139-1.521-0.414-2.158
		c-0.279-0.635-0.646-1.18-1.119-1.637c-0.471-0.454-1.025-0.806-1.662-1.05c-0.637-0.242-1.324-0.363-2.061-0.363h-10.721v19.347
		h-6.131V14.809c0-0.423,0.078-0.819,0.238-1.188c0.154-0.371,0.377-0.691,0.658-0.968c0.285-0.274,0.613-0.487,0.99-0.647
		c0.375-0.155,0.779-0.233,1.203-0.233h13.809c0.77,0,1.584,0.084,2.439,0.257c0.852,0.175,1.703,0.453,2.543,0.834
		c0.844,0.387,1.643,0.874,2.4,1.463c0.764,0.589,1.443,1.303,2.031,2.142c0.584,0.844,1.057,1.814,1.398,2.914
		c0.346,1.1,0.521,2.339,0.521,3.724V37.245z"/>
	<path fill="url(#XMLID_45_)" d="M464.077,28.642c0,1.052-0.135,1.997-0.402,2.842c-0.264,0.838-0.619,1.577-1.057,2.212
		c-0.441,0.638-0.955,1.182-1.533,1.629c-0.584,0.445-1.188,0.813-1.83,1.096c-0.631,0.282-1.277,0.49-1.926,0.623
		c-0.654,0.133-1.273,0.201-1.854,0.201h-16.59v-6.127h16.547c0.83,0,1.459-0.213,1.883-0.637c0.424-0.423,0.633-1.035,0.633-1.839
		c-0.076-1.634-0.904-2.45-2.473-2.45h-9.496c-1.354,0-2.498-0.234-3.438-0.707c-0.949-0.469-1.709-1.062-2.299-1.768
		c-0.592-0.707-1.016-1.467-1.277-2.285c-0.254-0.814-0.385-1.58-0.385-2.287c0-1.367,0.24-2.516,0.727-3.452
		c0.488-0.935,1.102-1.693,1.844-2.272c0.734-0.58,1.535-1.003,2.4-1.261c0.865-0.261,1.672-0.388,2.428-0.388h15.059v6.125h-15.012
		c-0.314,0-0.561,0.035-0.744,0.107c-0.18,0.071-0.313,0.164-0.396,0.282c-0.09,0.117-0.143,0.24-0.154,0.376
		c-0.016,0.133-0.023,0.264-0.023,0.386c0.014,0.254,0.063,0.449,0.143,0.589c0.076,0.143,0.172,0.248,0.293,0.307
		c0.117,0.065,0.25,0.101,0.402,0.107c0.145,0.006,0.293,0.012,0.434,0.012h9.496c1.568,0,2.904,0.285,4.006,0.849
		c1.102,0.565,1.984,1.276,2.66,2.132s1.172,1.787,1.475,2.791C463.927,26.844,464.077,27.78,464.077,28.642z"/>
</g>
</svg>
