<?xml version="1.0" encoding="utf-8"?>
<!-- Generator: Adobe Illustrator 12.0.0, SVG Export Plug-In . SVG Version: 6.00 Build 51448)  -->
<!DOCTYPE svg PUBLIC "-//W3C//DTD SVG 1.1 Basic//EN" "http://www.w3.org/Graphics/SVG/1.1/DTD/svg11-basic.dtd" [
	<!ENTITY ns_svg "http://www.w3.org/2000/svg">
	<!ENTITY ns_xlink "http://www.w3.org/1999/xlink">
]>
<svg  version="1.1" baseProfile="basic" id="Layer_1" xmlns="&ns_svg;" xmlns:xlink="&ns_xlink;" width="168.644" height="72.045"
	 viewBox="0 0 168.644 72.045" overflow="visible" enable-background="new 0 0 168.644 72.045" xml:space="preserve">
<linearGradient id="XMLID_20_" gradientUnits="userSpaceOnUse" x1="27.0786" y1="-0.3755" x2="26.1347" y2="53.6983">
	<stop  offset="0" style="stop-color:#339933"/>
	<stop  offset="0.2894" style="stop-color:#669933"/>
	<stop  offset="0.4128" style="stop-color:#3F996D"/>
	<stop  offset="0.5363" style="stop-color:#1D99A0"/>
	<stop  offset="0.6294" style="stop-color:#0899C0"/>
	<stop  offset="0.6809" style="stop-color:#0099CC"/>
	<stop  offset="1" style="stop-color:#006699"/>
</linearGradient>
<path fill="url(#XMLID_20_)" d="M16.078,0c-1.611,0-3.36,0.288-5.199,0.854C9.003,1.432,7.241,2.38,5.642,3.672
	C4.03,4.975,2.676,6.677,1.617,8.731C0.544,10.812,0,13.366,0,16.324c0,2.956,0.543,5.516,1.615,7.607
	c1.06,2.069,2.417,3.773,4.032,5.066c1.598,1.278,3.357,2.219,5.231,2.796c1.838,0.566,3.587,0.854,5.199,0.854h21.023
	c0.656,0,1.251,0.106,1.769,0.317c0.503,0.205,0.914,0.482,1.255,0.849c0.354,0.379,0.62,0.821,0.814,1.35
	c0.199,0.543,0.3,1.159,0.3,1.833c0,1.371-0.351,2.41-1.073,3.176c-0.699,0.741-1.702,1.102-3.064,1.102H0.422v11.976h36.679
	c1.078,0,2.234-0.129,3.438-0.382c1.21-0.255,2.416-0.654,3.583-1.188c1.17-0.535,2.315-1.229,3.403-2.063
	c1.123-0.862,2.114-1.918,2.945-3.14c0.824-1.21,1.494-2.617,1.99-4.184c0.499-1.573,0.752-3.355,0.752-5.297
	c0-1.94-0.247-3.714-0.732-5.273c-0.486-1.56-1.158-2.967-1.998-4.182c-0.837-1.21-1.813-2.264-2.901-3.132
	c-1.065-0.85-2.206-1.564-3.389-2.125c-1.179-0.558-2.385-0.977-3.584-1.245c-1.187-0.265-2.332-0.413-3.404-0.438l-21.127,0
	c-1.342,0-2.335-0.356-3.035-1.09c-0.718-0.752-1.067-1.795-1.067-3.188c0-1.378,0.354-2.432,1.083-3.223
	c0.698-0.757,1.686-1.125,3.019-1.125h32.531V0H16.078z"/>
<linearGradient id="XMLID_21_" gradientUnits="userSpaceOnUse" x1="63.5483" y1="-0.0962" x2="62.6155" y2="53.3454">
	<stop  offset="0" style="stop-color:#339933"/>
	<stop  offset="0.2894" style="stop-color:#669933"/>
	<stop  offset="0.4128" style="stop-color:#3F996D"/>
	<stop  offset="0.5363" style="stop-color:#1D99A0"/>
	<stop  offset="0.6294" style="stop-color:#0899C0"/>
	<stop  offset="0.6809" style="stop-color:#0099CC"/>
	<stop  offset="1" style="stop-color:#006699"/>
</linearGradient>
<path fill="url(#XMLID_21_)" d="M57.094,0v9.187h11.976V0H57.094z M57.094,12.41v40.839h11.976V12.41H57.094z"/>
<linearGradient id="XMLID_22_" gradientUnits="userSpaceOnUse" x1="92.7412" y1="-0.064" x2="91.8083" y2="53.3796">
	<stop  offset="0" style="stop-color:#339933"/>
	<stop  offset="0.2894" style="stop-color:#669933"/>
	<stop  offset="0.4128" style="stop-color:#3F996D"/>
	<stop  offset="0.5363" style="stop-color:#1D99A0"/>
	<stop  offset="0.6294" style="stop-color:#0899C0"/>
	<stop  offset="0.6809" style="stop-color:#0099CC"/>
	<stop  offset="1" style="stop-color:#006699"/>
</linearGradient>
<path fill="url(#XMLID_22_)" d="M84.34,0c0,0,0,10.186,0,12.41c-2.199,0-11.883,0-11.883,0v11.976c0,0,9.684,0,11.883,0
	c0,2.563,0,28.863,0,28.863h12.081c0,0,0-26.3,0-28.863c6.421,0,0.312,0,15.961,0V12.41c0,0-13.607,0-15.961,0
	c0-2.224,0-12.41,0-12.41H84.34z"/>
<linearGradient id="XMLID_23_" gradientUnits="userSpaceOnUse" x1="141.7236" y1="-0.3755" x2="140.7798" y2="53.6983">
	<stop  offset="0" style="stop-color:#339933"/>
	<stop  offset="0.2894" style="stop-color:#669933"/>
	<stop  offset="0.4128" style="stop-color:#3F996D"/>
	<stop  offset="0.5363" style="stop-color:#1D99A0"/>
	<stop  offset="0.6294" style="stop-color:#0899C0"/>
	<stop  offset="0.6809" style="stop-color:#0099CC"/>
	<stop  offset="1" style="stop-color:#006699"/>
</linearGradient>
<path fill="url(#XMLID_23_)" d="M130.722,0c-1.611,0-3.359,0.288-5.198,0.854c-1.876,0.578-3.638,1.526-5.237,2.818
	c-1.611,1.303-2.966,3.004-4.025,5.059c-1.072,2.081-1.616,4.635-1.616,7.593c0,2.956,0.544,5.516,1.615,7.607
	c1.06,2.069,2.417,3.773,4.032,5.066c1.598,1.278,3.357,2.219,5.231,2.796c1.839,0.566,3.587,0.854,5.198,0.854h21.023
	c0.656,0,1.252,0.106,1.77,0.317c0.502,0.205,0.913,0.482,1.254,0.849c0.354,0.379,0.621,0.821,0.814,1.35
	c0.199,0.543,0.3,1.159,0.3,1.833c0,1.371-0.351,2.41-1.073,3.176c-0.699,0.741-1.701,1.102-3.064,1.102h-36.679v11.976h36.679
	c1.078,0,2.234-0.129,3.439-0.382c1.209-0.255,2.416-0.654,3.583-1.188c1.171-0.535,2.315-1.229,3.403-2.063
	c1.123-0.862,2.113-1.918,2.945-3.14c0.824-1.21,1.494-2.617,1.99-4.184c0.498-1.573,0.752-3.355,0.752-5.297
	c0-1.94-0.246-3.714-0.732-5.273c-0.486-1.56-1.158-2.967-1.998-4.182c-0.836-1.21-1.813-2.264-2.9-3.132
	c-1.066-0.85-2.205-1.564-3.39-2.125c-1.179-0.558-2.386-0.977-3.584-1.245c-1.187-0.265-2.332-0.413-3.404-0.438l-21.128,0
	c-1.342,0-2.334-0.356-3.035-1.09c-0.717-0.752-1.066-1.795-1.066-3.188c0-1.378,0.354-2.432,1.084-3.223
	c0.697-0.757,1.686-1.125,3.018-1.125h32.531V0H130.722z"/>
<g>
	<linearGradient id="XMLID_24_" gradientUnits="userSpaceOnUse" x1="6.4438" y1="72.0449" x2="6.4438" y2="59.8154">
		<stop  offset="0" style="stop-color:#006699"/>
		<stop  offset="1" style="stop-color:#0099CC"/>
	</linearGradient>
	<path fill="url(#XMLID_24_)" d="M12.554,68.446c0,0.438-0.055,0.831-0.166,1.181s-0.257,0.658-0.439,0.926
		c-0.183,0.268-0.396,0.494-0.64,0.682c-0.245,0.188-0.499,0.342-0.76,0.461s-0.526,0.209-0.797,0.265
		c-0.27,0.058-0.524,0.085-0.763,0.085H0.436v-2.217h8.554c0.427,0,0.758-0.125,0.994-0.376c0.236-0.249,0.354-0.585,0.354-1.006
		c0-0.205-0.032-0.393-0.094-0.563c-0.064-0.17-0.152-0.318-0.269-0.443c-0.117-0.125-0.258-0.222-0.427-0.289
		c-0.167-0.068-0.354-0.103-0.559-0.103h-5.1c-0.358,0-0.745-0.063-1.16-0.192c-0.415-0.128-0.8-0.333-1.156-0.618
		c-0.354-0.284-0.65-0.656-0.887-1.116c-0.236-0.462-0.354-1.023-0.354-1.689c0-0.665,0.117-1.227,0.354-1.684
		c0.236-0.459,0.532-0.83,0.887-1.118c0.356-0.287,0.741-0.494,1.156-0.622c0.415-0.129,0.802-0.192,1.16-0.192h7.547v2.218H3.89
		c-0.421,0-0.748,0.128-0.985,0.383c-0.236,0.256-0.354,0.596-0.354,1.016c0,0.426,0.117,0.764,0.354,1.011
		c0.237,0.247,0.564,0.37,0.985,0.37h5.1h0.017c0.239,0.008,0.491,0.039,0.759,0.1c0.267,0.059,0.533,0.152,0.797,0.276
		c0.265,0.125,0.516,0.282,0.755,0.474c0.239,0.189,0.45,0.419,0.635,0.687c0.186,0.267,0.331,0.574,0.44,0.921
		C12.5,67.616,12.554,68.009,12.554,68.446z"/>
	<linearGradient id="XMLID_25_" gradientUnits="userSpaceOnUse" x1="18.6128" y1="72.0449" x2="18.6128" y2="62.8271">
		<stop  offset="0" style="stop-color:#006699"/>
		<stop  offset="1" style="stop-color:#0099CC"/>
	</linearGradient>
	<path fill="url(#XMLID_25_)" d="M23.666,68.992c0,0.307-0.055,0.638-0.162,0.994c-0.108,0.354-0.283,0.684-0.525,0.988
		c-0.24,0.305-0.557,0.559-0.946,0.764c-0.39,0.205-0.863,0.307-1.419,0.307h-4c-0.308,0-0.638-0.053-0.993-0.162
		c-0.356-0.107-0.686-0.283-0.99-0.524c-0.304-0.241-0.558-0.558-0.764-0.946c-0.204-0.391-0.307-0.863-0.307-1.42
		c0-0.307,0.054-0.64,0.163-0.998c0.107-0.357,0.283-0.688,0.524-0.992c0.242-0.306,0.558-0.561,0.947-0.765
		c0.39-0.204,0.862-0.306,1.42-0.306h4v2.113h-4c-0.302,0-0.535,0.094-0.7,0.278c-0.165,0.184-0.247,0.413-0.247,0.686
		c0,0.29,0.095,0.517,0.286,0.679c0.19,0.161,0.415,0.243,0.678,0.243h3.983c0.3,0,0.534-0.091,0.699-0.273
		c0.165-0.183,0.247-0.409,0.247-0.683V65.88c0-0.291-0.089-0.521-0.269-0.691c-0.179-0.17-0.405-0.256-0.677-0.256h-4.87v-2.105
		h4.87c0.306,0,0.637,0.054,0.993,0.161c0.356,0.108,0.684,0.283,0.989,0.524c0.305,0.241,0.559,0.558,0.763,0.946
		c0.205,0.391,0.307,0.863,0.307,1.421V68.992z"/>
	<linearGradient id="XMLID_26_" gradientUnits="userSpaceOnUse" x1="30.6162" y1="72.0449" x2="30.6162" y2="58.9287">
		<stop  offset="0" style="stop-color:#006699"/>
		<stop  offset="1" style="stop-color:#0099CC"/>
	</linearGradient>
	<path fill="url(#XMLID_26_)" d="M35.725,68.932c0,0.211-0.023,0.434-0.072,0.666c-0.048,0.234-0.124,0.465-0.226,0.695
		c-0.103,0.229-0.235,0.451-0.397,0.66c-0.162,0.211-0.357,0.397-0.587,0.559c-0.231,0.162-0.497,0.292-0.798,0.389
		c-0.302,0.098-0.643,0.145-1.023,0.145h-4c-0.21,0-0.433-0.024-0.666-0.072c-0.233-0.049-0.464-0.123-0.694-0.226
		c-0.231-0.103-0.452-0.235-0.661-0.396c-0.212-0.162-0.398-0.358-0.56-0.589c-0.162-0.23-0.292-0.498-0.387-0.801
		c-0.098-0.307-0.146-0.648-0.146-1.029V58.929h2.217v10.003c0,0.273,0.085,0.491,0.255,0.652c0.171,0.163,0.385,0.244,0.64,0.244h4
		c0.279,0,0.497-0.082,0.652-0.248c0.156-0.164,0.235-0.38,0.235-0.648v-3c0-0.279-0.083-0.497-0.248-0.653
		c-0.165-0.157-0.378-0.234-0.64-0.234h-4v-2.217h4c0.21,0,0.432,0.022,0.665,0.071c0.234,0.049,0.464,0.124,0.695,0.227
		c0.23,0.102,0.451,0.234,0.662,0.396c0.208,0.162,0.394,0.357,0.554,0.588c0.159,0.23,0.286,0.496,0.384,0.798
		c0.096,0.302,0.145,0.644,0.145,1.024V68.932z"/>
	<linearGradient id="XMLID_27_" gradientUnits="userSpaceOnUse" x1="42.0825" y1="72.0449" x2="42.0825" y2="62.8271">
		<stop  offset="0" style="stop-color:#006699"/>
		<stop  offset="1" style="stop-color:#0099CC"/>
	</linearGradient>
	<path fill="url(#XMLID_27_)" d="M47.136,68.992c0,0.307-0.055,0.638-0.162,0.994c-0.108,0.354-0.283,0.684-0.525,0.988
		c-0.241,0.305-0.556,0.559-0.946,0.764c-0.391,0.205-0.864,0.307-1.421,0.307h-4c-0.307,0-0.638-0.053-0.993-0.162
		c-0.356-0.107-0.685-0.283-0.989-0.524s-0.559-0.558-0.763-0.946c-0.205-0.391-0.308-0.863-0.308-1.42
		c0-0.307,0.055-0.64,0.163-0.998c0.107-0.357,0.283-0.688,0.524-0.992c0.242-0.306,0.557-0.561,0.947-0.765s0.862-0.306,1.42-0.306
		h4v2.113h-4c-0.302,0-0.535,0.094-0.699,0.278c-0.166,0.184-0.247,0.413-0.247,0.686c0,0.29,0.096,0.517,0.286,0.679
		c0.19,0.161,0.416,0.243,0.678,0.243h3.982c0.301,0,0.535-0.091,0.7-0.273c0.165-0.183,0.247-0.409,0.247-0.683V65.88
		c0-0.291-0.089-0.521-0.269-0.691c-0.179-0.17-0.406-0.256-0.678-0.256h-4.869v-2.105h4.869c0.307,0,0.638,0.054,0.994,0.161
		c0.356,0.108,0.685,0.283,0.989,0.524c0.305,0.241,0.559,0.558,0.764,0.946c0.205,0.391,0.307,0.863,0.307,1.421V68.992z"/>
	<linearGradient id="XMLID_28_" gradientUnits="userSpaceOnUse" x1="56.0811" y1="72.0449" x2="56.0811" y2="59.8154">
		<stop  offset="0" style="stop-color:#006699"/>
		<stop  offset="1" style="stop-color:#0099CC"/>
	</linearGradient>
	<path fill="url(#XMLID_28_)" d="M57.189,72.045h-2.217V59.815h2.217V72.045z"/>
	<linearGradient id="XMLID_29_" gradientUnits="userSpaceOnUse" x1="64.8354" y1="72.0449" x2="64.8354" y2="59.8154">
		<stop  offset="0" style="stop-color:#006699"/>
		<stop  offset="1" style="stop-color:#0099CC"/>
	</linearGradient>
	<path fill="url(#XMLID_29_)" d="M70.835,62.033h-4.887v10.012h-2.217V62.033h-4.895v-2.218h11.999V62.033z"/>
	<linearGradient id="XMLID_30_" gradientUnits="userSpaceOnUse" x1="83.5972" y1="72.0449" x2="83.5972" y2="59.8154">
		<stop  offset="0" style="stop-color:#006699"/>
		<stop  offset="1" style="stop-color:#0099CC"/>
	</linearGradient>
	<path fill="url(#XMLID_30_)" d="M89.707,68.446c0,0.438-0.056,0.831-0.166,1.181s-0.257,0.658-0.438,0.926
		c-0.184,0.268-0.397,0.494-0.641,0.682c-0.244,0.188-0.498,0.342-0.758,0.461c-0.264,0.119-0.527,0.209-0.799,0.265
		c-0.271,0.058-0.523,0.085-0.762,0.085H77.59v-2.217h8.554c0.426,0,0.756-0.125,0.992-0.376c0.236-0.249,0.354-0.585,0.354-1.006
		c0-0.205-0.032-0.393-0.094-0.563c-0.063-0.17-0.151-0.318-0.27-0.443c-0.116-0.125-0.258-0.222-0.426-0.289
		c-0.168-0.068-0.354-0.103-0.558-0.103h-5.101c-0.358,0-0.745-0.063-1.16-0.192c-0.416-0.128-0.799-0.333-1.155-0.618
		c-0.356-0.284-0.65-0.656-0.887-1.116c-0.236-0.462-0.354-1.023-0.354-1.689c0-0.665,0.118-1.227,0.354-1.684
		c0.237-0.459,0.531-0.83,0.887-1.118c0.356-0.287,0.74-0.494,1.155-0.622c0.415-0.129,0.801-0.192,1.16-0.192h7.548v2.218h-7.548
		c-0.421,0-0.749,0.128-0.984,0.383c-0.236,0.256-0.354,0.596-0.354,1.016c0,0.426,0.118,0.764,0.354,1.011
		c0.236,0.247,0.563,0.37,0.984,0.37h5.101h0.016c0.24,0.008,0.491,0.039,0.76,0.1c0.267,0.059,0.533,0.152,0.797,0.276
		c0.265,0.125,0.516,0.282,0.755,0.474c0.238,0.189,0.45,0.419,0.636,0.687c0.184,0.267,0.33,0.574,0.438,0.921
		C89.652,67.616,89.707,68.009,89.707,68.446z"/>
	<linearGradient id="XMLID_31_" gradientUnits="userSpaceOnUse" x1="96.2227" y1="72.0449" x2="96.2227" y2="62.8271">
		<stop  offset="0" style="stop-color:#006699"/>
		<stop  offset="1" style="stop-color:#0099CC"/>
	</linearGradient>
	<path fill="url(#XMLID_31_)" d="M101.331,68.932c0,0.381-0.049,0.723-0.145,1.029c-0.098,0.303-0.226,0.57-0.385,0.801
		s-0.345,0.427-0.553,0.589c-0.213,0.161-0.432,0.294-0.662,0.396c-0.229,0.103-0.463,0.177-0.699,0.226
		c-0.236,0.048-0.459,0.072-0.669,0.072h-4c-0.308,0-0.644-0.053-1.007-0.162c-0.363-0.107-0.7-0.285-1.01-0.532
		c-0.311-0.248-0.569-0.569-0.776-0.964c-0.207-0.396-0.312-0.88-0.312-1.455v-3c0-0.569,0.104-1.052,0.312-1.447
		c0.207-0.395,0.466-0.716,0.776-0.963c0.31-0.248,0.646-0.425,1.01-0.533c0.363-0.107,0.699-0.161,1.007-0.161h4
		c0.567,0,1.052,0.101,1.449,0.306s0.719,0.463,0.964,0.772c0.244,0.31,0.423,0.646,0.533,1.011s0.166,0.701,0.166,1.016V68.932z
		 M99.114,65.947c0-0.307-0.078-0.533-0.23-0.682c-0.154-0.148-0.375-0.222-0.665-0.222h-3.983c-0.295,0-0.52,0.074-0.674,0.226
		c-0.153,0.15-0.229,0.371-0.229,0.662v3c0,0.291,0.075,0.513,0.229,0.666c0.154,0.153,0.379,0.23,0.674,0.23h3.983
		c0.302,0,0.524-0.077,0.673-0.23s0.223-0.375,0.223-0.666V65.947z"/>
	<linearGradient id="XMLID_32_" gradientUnits="userSpaceOnUse" x1="105.2158" y1="72.0449" x2="105.2158" y2="58.9287">
		<stop  offset="0" style="stop-color:#006699"/>
		<stop  offset="1" style="stop-color:#0099CC"/>
	</linearGradient>
	<path fill="url(#XMLID_32_)" d="M107.267,72.045h-0.99c-0.318,0-0.658-0.053-1.018-0.162c-0.361-0.107-0.699-0.285-1.012-0.532
		c-0.313-0.248-0.571-0.569-0.775-0.964c-0.204-0.396-0.307-0.88-0.307-1.455V58.929h2.217v10.003c0,0.273,0.085,0.491,0.256,0.652
		c0.17,0.163,0.384,0.244,0.639,0.244h0.99V72.045z"/>
	<linearGradient id="XMLID_33_" gradientUnits="userSpaceOnUse" x1="113.5254" y1="72.0449" x2="113.5254" y2="62.8271">
		<stop  offset="0" style="stop-color:#006699"/>
		<stop  offset="1" style="stop-color:#0099CC"/>
	</linearGradient>
	<path fill="url(#XMLID_33_)" d="M118.634,70.928c0,0.16-0.028,0.307-0.084,0.443c-0.059,0.137-0.137,0.254-0.235,0.354
		c-0.101,0.101-0.216,0.18-0.349,0.235c-0.135,0.058-0.278,0.085-0.432,0.085h-5.014c-0.273,0-0.564-0.03-0.874-0.094
		c-0.311-0.063-0.616-0.164-0.917-0.303c-0.303-0.139-0.594-0.316-0.875-0.529s-0.528-0.471-0.736-0.775
		c-0.212-0.305-0.381-0.654-0.508-1.053c-0.129-0.398-0.193-0.848-0.193-1.348v-5.116h2.219v5.116c0,0.289,0.049,0.55,0.148,0.779
		c0.1,0.231,0.234,0.429,0.405,0.594s0.37,0.292,0.602,0.379c0.229,0.088,0.479,0.133,0.746,0.133h3.88v-7.001h2.217V70.928z"/>
	<linearGradient id="XMLID_34_" gradientUnits="userSpaceOnUse" x1="124.6006" y1="72.0449" x2="124.6006" y2="59.8154">
		<stop  offset="0" style="stop-color:#006699"/>
		<stop  offset="1" style="stop-color:#0099CC"/>
	</linearGradient>
	<path fill="url(#XMLID_34_)" d="M129.099,65.044h-3.872v7.001h-2.243v-7.001h-2.882v-2.217h2.882v-3.012h2.243v3.012h3.872V65.044z
		"/>
	<linearGradient id="XMLID_35_" gradientUnits="userSpaceOnUse" x1="131.6992" y1="72.0449" x2="131.6992" y2="58.9287">
		<stop  offset="0" style="stop-color:#006699"/>
		<stop  offset="1" style="stop-color:#0099CC"/>
	</linearGradient>
	<path fill="url(#XMLID_35_)" d="M132.808,60.934h-2.217v-2.005h2.217V60.934z M132.808,72.045h-2.217v-9.218h2.217V72.045z"/>
	<linearGradient id="XMLID_36_" gradientUnits="userSpaceOnUse" x1="139.8516" y1="72.0449" x2="139.8516" y2="62.8271">
		<stop  offset="0" style="stop-color:#006699"/>
		<stop  offset="1" style="stop-color:#0099CC"/>
	</linearGradient>
	<path fill="url(#XMLID_36_)" d="M144.96,68.932c0,0.381-0.049,0.723-0.145,1.029c-0.098,0.303-0.225,0.57-0.383,0.801
		c-0.16,0.23-0.346,0.427-0.556,0.589c-0.21,0.161-0.431,0.294-0.659,0.396c-0.231,0.103-0.465,0.177-0.701,0.226
		c-0.235,0.048-0.459,0.072-0.669,0.072h-3.999c-0.309,0-0.645-0.053-1.008-0.162c-0.363-0.107-0.699-0.285-1.01-0.532
		c-0.311-0.248-0.568-0.569-0.777-0.964c-0.205-0.396-0.311-0.88-0.311-1.455v-3c0-0.569,0.105-1.052,0.311-1.447
		c0.209-0.395,0.467-0.716,0.777-0.963c0.311-0.248,0.646-0.425,1.01-0.533c0.363-0.107,0.699-0.161,1.008-0.161h3.999
		c0.567,0,1.052,0.101,1.45,0.306c0.397,0.205,0.719,0.463,0.963,0.772s0.422,0.646,0.533,1.011s0.166,0.701,0.166,1.016V68.932z
		 M142.743,65.947c0-0.307-0.078-0.533-0.23-0.682c-0.153-0.148-0.375-0.222-0.665-0.222h-3.981c-0.297,0-0.521,0.074-0.674,0.226
		c-0.154,0.15-0.232,0.371-0.232,0.662v3c0,0.291,0.078,0.513,0.232,0.666c0.152,0.153,0.377,0.23,0.674,0.23h3.981
		c0.301,0,0.525-0.077,0.674-0.23c0.147-0.153,0.222-0.375,0.222-0.666V65.947z"/>
	<linearGradient id="XMLID_37_" gradientUnits="userSpaceOnUse" x1="151.9531" y1="72.0449" x2="151.9531" y2="62.8271">
		<stop  offset="0" style="stop-color:#006699"/>
		<stop  offset="1" style="stop-color:#0099CC"/>
	</linearGradient>
	<path fill="url(#XMLID_37_)" d="M157.062,72.045h-2.217v-5.117c0-0.289-0.05-0.55-0.149-0.78c-0.101-0.229-0.234-0.427-0.405-0.593
		c-0.17-0.164-0.371-0.291-0.602-0.379s-0.479-0.132-0.745-0.132h-3.88v7.001h-2.219v-8.119c0-0.153,0.028-0.297,0.086-0.43
		c0.056-0.135,0.137-0.25,0.238-0.351c0.104-0.099,0.222-0.177,0.358-0.233c0.136-0.057,0.282-0.085,0.436-0.085h4.997
		c0.278,0,0.573,0.03,0.883,0.093c0.309,0.063,0.616,0.164,0.92,0.303c0.306,0.139,0.595,0.315,0.869,0.529
		c0.276,0.213,0.522,0.471,0.735,0.775c0.211,0.305,0.382,0.656,0.506,1.054c0.125,0.397,0.188,0.847,0.188,1.347V72.045z"/>
	<linearGradient id="XMLID_38_" gradientUnits="userSpaceOnUse" x1="163.3037" y1="72.0449" x2="163.3037" y2="62.8271">
		<stop  offset="0" style="stop-color:#006699"/>
		<stop  offset="1" style="stop-color:#0099CC"/>
	</linearGradient>
	<path fill="url(#XMLID_38_)" d="M167.918,68.932c0,0.381-0.049,0.723-0.146,1.029c-0.096,0.303-0.225,0.57-0.383,0.801
		c-0.159,0.23-0.346,0.427-0.555,0.589c-0.212,0.161-0.43,0.294-0.662,0.396c-0.229,0.103-0.462,0.177-0.697,0.226
		c-0.237,0.048-0.461,0.072-0.671,0.072h-6.004v-2.217h5.988c0.301,0,0.528-0.077,0.682-0.23s0.229-0.375,0.229-0.666
		c-0.028-0.591-0.327-0.887-0.896-0.887h-3.437c-0.489,0-0.904-0.084-1.244-0.256c-0.343-0.17-0.618-0.384-0.832-0.639
		c-0.214-0.256-0.367-0.531-0.462-0.828c-0.092-0.295-0.14-0.571-0.14-0.827c0-0.495,0.088-0.91,0.264-1.249
		c0.177-0.338,0.398-0.613,0.667-0.822c0.266-0.21,0.556-0.363,0.869-0.457c0.313-0.094,0.604-0.14,0.878-0.14h5.449v2.217h-5.432
		c-0.114,0-0.203,0.013-0.27,0.038c-0.065,0.026-0.113,0.061-0.144,0.103c-0.032,0.042-0.052,0.087-0.056,0.136
		c-0.006,0.049-0.009,0.096-0.009,0.141c0.005,0.092,0.022,0.162,0.052,0.213c0.027,0.052,0.063,0.09,0.105,0.111
		c0.043,0.023,0.091,0.036,0.146,0.039c0.053,0.002,0.106,0.004,0.157,0.004h3.437c0.568,0,1.052,0.104,1.45,0.307
		c0.398,0.205,0.718,0.462,0.963,0.771c0.244,0.311,0.424,0.646,0.533,1.011C167.863,68.281,167.918,68.62,167.918,68.932z"/>
</g>
<g>
	<path fill="#FFFFFF" d="M168.081,20.09c-23.906,8.672-50.857,8.525-74.635,8.396l-17.205-0.063
		C52.212,28.292,26,30.963,1.589,39.818c23.907-8.672,50.857-8.525,74.636-8.396l17.204,0.063
		C117.459,31.617,143.671,28.945,168.081,20.09z"/>
</g>
<g>
	<path fill="#FFFFFF" d="M168.567,25.921c-24.453,6.983-51.328,4.957-75.04,3.168L76.37,27.827
		c-23.962-1.807-50.297-0.97-75.266,6.16c24.454-6.983,51.328-4.957,75.04-3.168l17.158,1.263
		C117.264,33.888,143.599,33.051,168.567,25.921z"/>
</g>
<g>
	<path fill="#FFFFFF" d="M168.644,31.772c-24.88,5.261-51.549,1.364-75.077-2.074l-17.028-2.457
		c-23.778-3.474-50.106-4.476-75.512,0.895c24.881-5.26,51.549-1.364,75.078,2.074l17.027,2.457
		C116.91,36.141,143.239,37.143,168.644,31.772z"/>
</g>
</svg>
